<?xml version="1.0" encoding="utf-8"?>
<!-- Generator: Adobe Illustrator 27.5.0, SVG Export Plug-In . SVG Version: 6.00 Build 0)  -->
<svg version="1.1" xmlns="http://www.w3.org/2000/svg" xmlns:xlink="http://www.w3.org/1999/xlink" x="0px" y="0px"
	 viewBox="0 0 800 800" style="enable-background:new 0 0 800 800;" xml:space="preserve">
<g id="background">
	<rect style="fill:transparent;" width="800" height="800"/>
	<g id="logo">
		<g>
			<path style="fill:#4D4D4D;" d="M315.555,778.457v-0.172c-0.236,0.269-0.468,0.488-0.697,0.66
				c-0.229,0.168-0.477,0.295-0.746,0.383c-0.267,0.088-0.559,0.133-0.876,0.133c-0.42,0-0.808-0.09-1.166-0.267
				c-0.358-0.179-0.667-0.433-0.928-0.761c-0.262-0.33-0.46-0.718-0.594-1.164c-0.137-0.447-0.203-0.925-0.203-1.447
				c0-1.093,0.268-1.947,0.803-2.561c0.535-0.613,1.239-0.918,2.114-0.918c0.504,0,0.931,0.086,1.277,0.262
				c0.349,0.172,0.685,0.438,1.016,0.798v-2.588c0-0.36,0.071-0.634,0.214-0.817c0.143-0.183,0.348-0.277,0.613-0.277
				c0.266,0,0.472,0.086,0.614,0.256c0.145,0.168,0.216,0.418,0.216,0.748v7.732c0,0.334-0.077,0.586-0.231,0.752
				c-0.155,0.166-0.353,0.252-0.599,0.252c-0.239,0-0.438-0.086-0.593-0.262C315.632,779.027,315.555,778.778,315.555,778.457z
				 M312.104,775.883c0,0.475,0.073,0.879,0.222,1.213c0.147,0.334,0.351,0.586,0.607,0.754c0.256,0.172,0.536,0.256,0.841,0.256
				c0.309,0,0.59-0.08,0.845-0.24c0.255-0.162,0.458-0.408,0.611-0.74c0.15-0.33,0.227-0.746,0.227-1.242
				c0-0.469-0.076-0.867-0.227-1.205c-0.153-0.336-0.358-0.594-0.618-0.771c-0.259-0.177-0.543-0.266-0.851-0.266
				c-0.321,0-0.607,0.092-0.86,0.273c-0.251,0.182-0.449,0.443-0.588,0.783C312.174,775.036,312.104,775.432,312.104,775.883z"/>
			<path style="fill:#4D4D4D;" d="M323.866,776.324h-3.43c0.003,0.4,0.084,0.752,0.24,1.055c0.156,0.303,0.364,0.532,0.624,0.687
				c0.258,0.155,0.544,0.231,0.856,0.231c0.21,0,0.401-0.023,0.574-0.072c0.174-0.049,0.341-0.129,0.505-0.232
				c0.163-0.107,0.312-0.217,0.45-0.338c0.136-0.119,0.314-0.279,0.532-0.486c0.09-0.078,0.219-0.117,0.386-0.117
				c0.18,0,0.325,0.051,0.436,0.147c0.111,0.1,0.167,0.24,0.167,0.42c0,0.158-0.063,0.342-0.187,0.557
				c-0.124,0.209-0.311,0.414-0.562,0.607c-0.249,0.195-0.565,0.357-0.943,0.486c-0.379,0.129-0.814,0.193-1.307,0.193
				c-1.128,0-2.002-0.322-2.627-0.965c-0.625-0.642-0.938-1.512-0.938-2.613c0-0.518,0.077-1,0.231-1.441
				c0.153-0.443,0.379-0.824,0.674-1.143c0.296-0.314,0.659-0.559,1.092-0.729c0.433-0.168,0.914-0.254,1.439-0.254
				c0.686,0,1.273,0.144,1.762,0.434c0.492,0.29,0.858,0.664,1.103,1.121c0.243,0.457,0.366,0.926,0.366,1.402
				c0,0.44-0.128,0.726-0.379,0.858C324.679,776.26,324.323,776.324,323.866,776.324z M320.436,775.33h3.179
				c-0.043-0.598-0.204-1.049-0.485-1.346c-0.28-0.298-0.649-0.447-1.108-0.447c-0.435,0-0.795,0.152-1.075,0.455
				C320.667,774.293,320.495,774.738,320.436,775.33z"/>
			<path style="fill:#4D4D4D;" d="M332.434,777.168c0,0.482-0.117,0.897-0.353,1.24c-0.235,0.348-0.584,0.607-1.043,0.786
				c-0.46,0.177-1.021,0.267-1.68,0.267c-0.631,0-1.171-0.098-1.62-0.289c-0.45-0.193-0.781-0.436-0.995-0.725
				c-0.213-0.285-0.321-0.578-0.321-0.869c0-0.193,0.068-0.357,0.205-0.494c0.139-0.137,0.31-0.205,0.52-0.205
				c0.186,0,0.325,0.045,0.425,0.133c0.098,0.092,0.193,0.218,0.282,0.379c0.181,0.313,0.396,0.548,0.646,0.701
				c0.25,0.154,0.593,0.231,1.025,0.231c0.351,0,0.639-0.078,0.863-0.234c0.225-0.156,0.338-0.335,0.338-0.535
				c0-0.309-0.118-0.533-0.351-0.674c-0.234-0.143-0.618-0.277-1.153-0.405c-0.604-0.151-1.095-0.308-1.474-0.472
				c-0.379-0.166-0.682-0.383-0.908-0.652c-0.228-0.27-0.341-0.602-0.341-0.996c0-0.35,0.104-0.684,0.313-0.996
				c0.208-0.313,0.521-0.561,0.929-0.748c0.409-0.188,0.903-0.279,1.48-0.279c0.453,0,0.861,0.049,1.224,0.141
				c0.362,0.096,0.664,0.224,0.905,0.381c0.243,0.158,0.427,0.332,0.553,0.527c0.126,0.193,0.189,0.379,0.189,0.563
				c0,0.201-0.066,0.367-0.202,0.496c-0.135,0.128-0.327,0.193-0.574,0.193c-0.181,0-0.333-0.053-0.46-0.154
				c-0.127-0.106-0.272-0.258-0.434-0.463c-0.133-0.172-0.288-0.309-0.469-0.412c-0.181-0.103-0.424-0.154-0.732-0.154
				c-0.317,0-0.58,0.068-0.79,0.205c-0.209,0.133-0.315,0.301-0.315,0.502c0,0.184,0.078,0.336,0.232,0.453
				c0.154,0.117,0.361,0.215,0.623,0.293c0.261,0.076,0.62,0.172,1.078,0.281c0.545,0.135,0.988,0.292,1.334,0.475
				c0.344,0.185,0.604,0.402,0.783,0.652C332.345,776.56,332.434,776.846,332.434,777.168z"/>
			<path style="fill:#4D4D4D;" d="M334.805,771.514c-0.245,0-0.454-0.074-0.625-0.225c-0.175-0.148-0.261-0.361-0.261-0.635
				c0-0.248,0.087-0.453,0.267-0.614c0.176-0.161,0.383-0.239,0.619-0.239c0.226,0,0.428,0.072,0.604,0.217
				c0.174,0.145,0.262,0.357,0.262,0.637c0,0.268-0.085,0.481-0.255,0.633C335.243,771.438,335.04,771.514,334.805,771.514z
				 M335.671,773.324v5.07c0,0.352-0.083,0.615-0.25,0.796c-0.167,0.181-0.379,0.27-0.636,0.27c-0.256,0-0.467-0.094-0.626-0.277
				c-0.161-0.185-0.24-0.447-0.24-0.789v-5.016c0-0.35,0.079-0.611,0.24-0.785c0.159-0.176,0.37-0.264,0.626-0.264
				c0.257,0,0.469,0.088,0.636,0.264C335.588,772.768,335.671,773.014,335.671,773.324z"/>
			<path style="fill:#4D4D4D;" d="M343.933,773.615v5.092c0,0.584-0.063,1.084-0.188,1.504c-0.123,0.421-0.323,0.768-0.597,1.042
				c-0.273,0.272-0.633,0.478-1.076,0.608c-0.443,0.133-0.994,0.2-1.652,0.2c-0.604,0-1.145-0.085-1.62-0.253
				c-0.476-0.172-0.842-0.389-1.099-0.654c-0.256-0.269-0.385-0.543-0.385-0.826c0-0.215,0.071-0.39,0.218-0.523
				c0.146-0.135,0.32-0.203,0.527-0.203c0.257,0,0.482,0.113,0.674,0.34c0.095,0.115,0.191,0.232,0.292,0.35
				c0.101,0.117,0.212,0.219,0.335,0.305c0.12,0.082,0.269,0.143,0.439,0.184c0.171,0.04,0.368,0.062,0.591,0.062
				c0.453,0,0.807-0.062,1.057-0.189c0.25-0.127,0.426-0.304,0.528-0.531c0.099-0.227,0.157-0.469,0.176-0.729
				c0.016-0.258,0.029-0.674,0.039-1.25c-0.27,0.377-0.583,0.664-0.936,0.861c-0.354,0.195-0.772,0.295-1.262,0.295
				c-0.586,0-1.099-0.148-1.537-0.449c-0.44-0.299-0.777-0.719-1.012-1.258c-0.236-0.541-0.354-1.164-0.354-1.871
				c0-0.525,0.072-1,0.216-1.424c0.144-0.426,0.347-0.783,0.613-1.074c0.266-0.293,0.571-0.512,0.918-0.657
				c0.347-0.147,0.729-0.222,1.145-0.222c0.496,0,0.927,0.095,1.29,0.285c0.364,0.19,0.702,0.488,1.017,0.894v-0.234
				c0-0.305,0.074-0.539,0.224-0.707c0.149-0.17,0.342-0.252,0.577-0.252c0.338,0,0.563,0.111,0.676,0.332
				C343.875,772.883,343.933,773.197,343.933,773.615z M338.85,775.838c0,0.711,0.156,1.25,0.467,1.611
				c0.311,0.364,0.712,0.547,1.205,0.547c0.291,0,0.566-0.08,0.824-0.234c0.26-0.156,0.472-0.393,0.634-0.707
				c0.163-0.315,0.243-0.697,0.243-1.148c0-0.713-0.157-1.27-0.471-1.668c-0.315-0.398-0.73-0.598-1.244-0.598
				c-0.5,0-0.902,0.189-1.204,0.572C339.001,774.594,338.85,775.135,338.85,775.838z"/>
			<path style="fill:#4D4D4D;" d="M347.299,773.299v0.213c0.308-0.406,0.644-0.705,1.012-0.895c0.364-0.191,0.785-0.287,1.261-0.287
				c0.463,0,0.875,0.1,1.241,0.302c0.362,0.2,0.635,0.485,0.815,0.855c0.115,0.213,0.191,0.445,0.225,0.693
				c0.035,0.248,0.051,0.566,0.051,0.951v3.264c0,0.352-0.08,0.615-0.239,0.796c-0.161,0.181-0.37,0.27-0.627,0.27
				c-0.261,0-0.474-0.094-0.636-0.277c-0.162-0.185-0.245-0.447-0.245-0.789v-2.925c0-0.575-0.079-1.019-0.24-1.327
				c-0.16-0.303-0.48-0.456-0.96-0.456c-0.313,0-0.598,0.093-0.855,0.278c-0.256,0.184-0.445,0.442-0.565,0.768
				c-0.084,0.262-0.127,0.752-0.127,1.465v2.197c0,0.356-0.083,0.621-0.247,0.8c-0.166,0.177-0.379,0.267-0.64,0.267
				c-0.252,0-0.46-0.094-0.624-0.277c-0.162-0.185-0.242-0.447-0.242-0.789v-5.07c0-0.334,0.071-0.582,0.217-0.746
				c0.146-0.166,0.345-0.248,0.599-0.248c0.153,0,0.293,0.035,0.416,0.111c0.124,0.07,0.226,0.18,0.299,0.326
				C347.261,772.912,347.299,773.09,347.299,773.299z"/>
			<path style="fill:#4D4D4D;" d="M358.544,776.324h-3.429c0.004,0.4,0.084,0.752,0.241,1.055c0.155,0.303,0.363,0.532,0.622,0.687
				c0.26,0.155,0.545,0.231,0.857,0.231c0.21,0,0.401-0.023,0.576-0.072c0.172-0.049,0.34-0.129,0.504-0.232
				c0.162-0.107,0.313-0.217,0.448-0.338c0.138-0.119,0.315-0.279,0.533-0.486c0.09-0.078,0.22-0.117,0.386-0.117
				c0.182,0,0.324,0.051,0.436,0.147c0.112,0.1,0.169,0.24,0.169,0.42c0,0.158-0.061,0.342-0.186,0.557
				c-0.125,0.209-0.313,0.414-0.563,0.607c-0.25,0.195-0.565,0.357-0.944,0.486c-0.378,0.129-0.815,0.193-1.307,0.193
				c-1.127,0-2.001-0.322-2.628-0.965c-0.625-0.642-0.939-1.512-0.939-2.613c0-0.518,0.079-1,0.231-1.441
				c0.154-0.443,0.38-0.824,0.676-1.143c0.296-0.314,0.659-0.559,1.092-0.729c0.433-0.168,0.911-0.254,1.44-0.254
				c0.685,0,1.271,0.144,1.762,0.434c0.491,0.29,0.857,0.664,1.103,1.121c0.245,0.457,0.366,0.926,0.366,1.402
				c0,0.44-0.127,0.726-0.378,0.858C359.358,776.26,359.004,776.324,358.544,776.324z M355.115,775.33h3.18
				c-0.044-0.598-0.206-1.049-0.487-1.346c-0.278-0.298-0.648-0.447-1.106-0.447c-0.437,0-0.797,0.152-1.076,0.455
				C355.346,774.293,355.174,774.738,355.115,775.33z"/>
			<path style="fill:#4D4D4D;" d="M366.271,778.457v-0.172c-0.235,0.269-0.467,0.488-0.697,0.66
				c-0.228,0.168-0.478,0.295-0.744,0.383c-0.27,0.088-0.56,0.133-0.878,0.133c-0.419,0-0.807-0.09-1.165-0.267
				c-0.357-0.179-0.667-0.433-0.929-0.761c-0.26-0.33-0.459-0.718-0.594-1.164c-0.134-0.447-0.202-0.925-0.202-1.447
				c0-1.093,0.269-1.947,0.803-2.561c0.535-0.613,1.24-0.918,2.115-0.918c0.505,0,0.93,0.086,1.276,0.262
				c0.348,0.172,0.686,0.438,1.015,0.798v-2.588c0-0.36,0.072-0.634,0.216-0.817c0.144-0.183,0.347-0.277,0.614-0.277
				c0.265,0,0.468,0.086,0.613,0.256c0.144,0.168,0.215,0.418,0.215,0.748v7.732c0,0.334-0.077,0.586-0.232,0.752
				c-0.154,0.166-0.354,0.252-0.596,0.252c-0.241,0-0.439-0.086-0.596-0.262C366.35,779.027,366.271,778.778,366.271,778.457z
				 M362.823,775.883c0,0.475,0.074,0.879,0.221,1.213c0.147,0.334,0.351,0.586,0.608,0.754c0.257,0.172,0.537,0.256,0.841,0.256
				c0.31,0,0.591-0.08,0.847-0.24c0.252-0.162,0.457-0.408,0.608-0.74c0.152-0.33,0.23-0.746,0.23-1.242
				c0-0.469-0.078-0.867-0.23-1.205c-0.151-0.336-0.357-0.594-0.616-0.771c-0.259-0.177-0.543-0.266-0.852-0.266
				c-0.32,0-0.607,0.092-0.861,0.273c-0.252,0.182-0.448,0.443-0.587,0.783C362.893,775.036,362.823,775.432,362.823,775.883z"/>
			<path style="fill:#4D4D4D;" d="M374.597,770.725v2.679c0.329-0.345,0.665-0.606,1.008-0.786c0.343-0.184,0.767-0.273,1.273-0.273
				c0.581,0,1.092,0.138,1.532,0.414c0.439,0.273,0.778,0.676,1.021,1.199c0.243,0.525,0.363,1.149,0.363,1.865
				c0,0.535-0.066,1.021-0.202,1.465c-0.135,0.442-0.331,0.828-0.588,1.152c-0.257,0.324-0.568,0.576-0.935,0.755
				c-0.366,0.177-0.771,0.267-1.211,0.267c-0.268,0-0.523-0.033-0.761-0.098c-0.238-0.064-0.44-0.147-0.607-0.254
				c-0.167-0.105-0.31-0.212-0.428-0.322c-0.118-0.113-0.271-0.279-0.465-0.502v0.172c0,0.332-0.078,0.579-0.237,0.75
				c-0.158,0.168-0.359,0.254-0.605,0.254c-0.247,0-0.446-0.086-0.595-0.254c-0.146-0.171-0.221-0.418-0.221-0.75v-7.654
				c0-0.355,0.071-0.625,0.216-0.807c0.143-0.183,0.343-0.275,0.6-0.275c0.27,0,0.477,0.088,0.623,0.262
				C374.524,770.156,374.597,770.404,374.597,770.725z M374.68,775.934c0,0.698,0.16,1.234,0.479,1.609
				c0.319,0.373,0.737,0.563,1.256,0.563c0.44,0,0.821-0.191,1.141-0.576c0.319-0.381,0.479-0.932,0.479-1.646
				c0-0.463-0.066-0.859-0.199-1.193c-0.133-0.336-0.322-0.594-0.566-0.775c-0.243-0.182-0.527-0.273-0.853-0.273
				c-0.334,0-0.631,0.092-0.893,0.273c-0.261,0.182-0.468,0.445-0.616,0.791C374.754,775.049,374.68,775.459,374.68,775.934z"/>
			<path style="fill:#4D4D4D;" d="M382.645,779.678l0.159-0.391l-2.158-5.434c-0.133-0.314-0.199-0.539-0.199-0.682
				c0-0.149,0.039-0.289,0.117-0.419c0.076-0.128,0.182-0.23,0.316-0.308c0.135-0.076,0.276-0.115,0.422-0.115
				c0.252,0,0.443,0.081,0.572,0.24c0.127,0.162,0.24,0.391,0.34,0.691l1.483,4.316l1.406-4.014c0.111-0.328,0.213-0.58,0.302-0.766
				c0.09-0.184,0.186-0.309,0.286-0.371c0.101-0.064,0.243-0.098,0.428-0.098c0.132,0,0.26,0.035,0.382,0.107
				c0.122,0.07,0.216,0.164,0.281,0.283c0.067,0.123,0.101,0.246,0.101,0.381c-0.018,0.08-0.046,0.195-0.083,0.346
				c-0.038,0.152-0.086,0.303-0.142,0.457l-2.286,5.986c-0.198,0.527-0.39,0.939-0.579,1.238c-0.188,0.301-0.436,0.531-0.748,0.691
				c-0.311,0.161-0.73,0.241-1.255,0.241c-0.514,0-0.899-0.054-1.156-0.167c-0.257-0.111-0.386-0.314-0.386-0.611
				c0-0.201,0.061-0.356,0.183-0.464c0.123-0.11,0.303-0.165,0.543-0.165c0.094,0,0.186,0.014,0.276,0.039
				c0.111,0.027,0.207,0.039,0.289,0.039c0.202,0,0.359-0.031,0.475-0.09c0.116-0.061,0.221-0.164,0.312-0.314
				C382.418,780.182,382.524,779.965,382.645,779.678z"/>
		</g>
		<g>
			<path style="fill:#4D4D4D;" d="M415.095,772.484h0.418v-0.527c0-0.547,0.068-0.983,0.207-1.307
				c0.139-0.324,0.375-0.559,0.707-0.705c0.332-0.15,0.787-0.225,1.365-0.225c1.023,0,1.535,0.252,1.535,0.753
				c0,0.165-0.053,0.304-0.16,0.419c-0.105,0.115-0.232,0.173-0.381,0.173c-0.068,0-0.186-0.015-0.352-0.04
				c-0.168-0.025-0.307-0.037-0.424-0.037c-0.316,0-0.521,0.092-0.611,0.279c-0.088,0.188-0.133,0.453-0.133,0.799v0.418h0.43
				c0.668,0,1.002,0.202,1.002,0.604c0,0.287-0.09,0.471-0.267,0.547c-0.178,0.076-0.422,0.115-0.734,0.115h-0.43v4.644
				c0,0.346-0.086,0.609-0.25,0.795c-0.164,0.18-0.377,0.271-0.639,0.271c-0.246,0-0.453-0.092-0.617-0.271
				c-0.168-0.186-0.248-0.449-0.248-0.795v-4.644h-0.482c-0.262,0-0.463-0.059-0.604-0.178c-0.143-0.115-0.213-0.27-0.213-0.459
				C414.214,772.694,414.509,772.484,415.095,772.484z"/>
			<path style="fill:#4D4D4D;" d="M421.358,776.928v1.467c0,0.356-0.084,0.621-0.252,0.8c-0.168,0.177-0.379,0.267-0.637,0.267
				c-0.252,0-0.459-0.09-0.621-0.27c-0.164-0.181-0.244-0.444-0.244-0.796v-4.883c0-0.787,0.285-1.182,0.854-1.182
				c0.293,0,0.502,0.092,0.631,0.277c0.127,0.182,0.195,0.455,0.211,0.814c0.211-0.359,0.426-0.633,0.647-0.814
				c0.221-0.186,0.514-0.277,0.883-0.277c0.367,0,0.725,0.092,1.072,0.277c0.346,0.182,0.52,0.428,0.52,0.732
				c0,0.213-0.074,0.39-0.223,0.529c-0.148,0.139-0.305,0.207-0.477,0.207c-0.064,0-0.221-0.039-0.467-0.119
				c-0.246-0.078-0.463-0.117-0.652-0.117c-0.258,0-0.467,0.067-0.629,0.203c-0.162,0.135-0.289,0.336-0.379,0.601
				c-0.09,0.262-0.152,0.58-0.186,0.947C421.372,775.955,421.358,776.404,421.358,776.928z"/>
			<path style="fill:#4D4D4D;" d="M429.944,776.324h-3.43c0.004,0.4,0.086,0.752,0.24,1.055c0.156,0.303,0.363,0.532,0.623,0.687
				c0.262,0.155,0.547,0.231,0.859,0.231c0.207,0,0.402-0.023,0.574-0.072c0.174-0.049,0.34-0.129,0.504-0.232
				c0.164-0.107,0.314-0.217,0.449-0.338c0.139-0.119,0.316-0.279,0.533-0.486c0.09-0.078,0.221-0.117,0.387-0.117
				c0.178,0,0.324,0.051,0.435,0.147c0.111,0.1,0.166,0.24,0.166,0.42c0,0.158-0.061,0.342-0.186,0.557
				c-0.125,0.209-0.313,0.414-0.561,0.607c-0.25,0.195-0.566,0.357-0.945,0.486s-0.816,0.193-1.309,0.193
				c-1.125,0-2.002-0.322-2.625-0.965c-0.625-0.642-0.939-1.512-0.939-2.613c0-0.518,0.078-1,0.23-1.441
				c0.156-0.443,0.381-0.824,0.676-1.143c0.297-0.314,0.66-0.559,1.092-0.729c0.436-0.168,0.912-0.254,1.439-0.254
				c0.684,0,1.272,0.144,1.762,0.434c0.492,0.29,0.859,0.664,1.103,1.121c0.242,0.457,0.365,0.926,0.365,1.402
				c0,0.44-0.125,0.726-0.377,0.858C430.757,776.26,430.403,776.324,429.944,776.324z M426.515,775.33h3.178
				c-0.043-0.598-0.201-1.049-0.484-1.346c-0.279-0.298-0.648-0.447-1.107-0.447c-0.436,0-0.795,0.152-1.074,0.455
				C426.745,774.293,426.575,774.738,426.515,775.33z"/>
			<path style="fill:#4D4D4D;" d="M437.763,776.324h-3.43c0.002,0.4,0.084,0.752,0.24,1.055c0.154,0.303,0.363,0.532,0.623,0.687
				c0.26,0.155,0.545,0.231,0.857,0.231c0.207,0,0.4-0.023,0.574-0.072c0.174-0.049,0.34-0.129,0.504-0.232
				c0.164-0.107,0.315-0.217,0.449-0.338c0.139-0.119,0.316-0.279,0.535-0.486c0.09-0.078,0.215-0.117,0.385-0.117
				c0.18,0,0.324,0.051,0.435,0.147c0.111,0.1,0.168,0.24,0.168,0.42c0,0.158-0.063,0.342-0.186,0.557
				c-0.125,0.209-0.313,0.414-0.563,0.607c-0.25,0.195-0.566,0.357-0.945,0.486s-0.814,0.193-1.307,0.193
				c-1.125,0-2.002-0.322-2.629-0.965c-0.623-0.642-0.934-1.512-0.934-2.613c0-0.518,0.074-1,0.227-1.441
				c0.156-0.443,0.381-0.824,0.676-1.143c0.297-0.314,0.66-0.559,1.094-0.729c0.432-0.168,0.912-0.254,1.438-0.254
				c0.686,0,1.273,0.144,1.766,0.434c0.488,0.29,0.855,0.664,1.1,1.121c0.244,0.457,0.365,0.926,0.365,1.402
				c0,0.44-0.125,0.726-0.379,0.858C438.577,776.26,438.222,776.324,437.763,776.324z M434.333,775.33h3.18
				c-0.045-0.598-0.207-1.049-0.486-1.346c-0.281-0.298-0.65-0.447-1.108-0.447c-0.438,0-0.795,0.152-1.078,0.455
				C434.563,774.293,434.392,774.738,434.333,775.33z"/>
			<path style="fill:#4D4D4D;" d="M442.13,773.315v0.209c0.332-0.406,0.674-0.704,1.025-0.894c0.357-0.19,0.762-0.285,1.209-0.285
				c0.541,0,1.037,0.139,1.49,0.416c0.455,0.28,0.813,0.685,1.078,1.222c0.262,0.534,0.393,1.167,0.393,1.901
				c0,0.539-0.076,1.033-0.229,1.486c-0.15,0.451-0.359,0.832-0.625,1.137c-0.266,0.307-0.578,0.543-0.941,0.707
				c-0.359,0.166-0.75,0.248-1.166,0.248c-0.5,0-0.92-0.102-1.262-0.305c-0.34-0.199-0.666-0.494-0.973-0.883v2.633
				c0,0.769-0.281,1.155-0.842,1.155c-0.33,0-0.547-0.099-0.654-0.3c-0.107-0.197-0.16-0.488-0.16-0.869v-7.568
				c0-0.334,0.074-0.582,0.217-0.746c0.146-0.166,0.346-0.248,0.598-0.248c0.248,0,0.451,0.082,0.607,0.254
				C442.052,772.753,442.13,772.996,442.13,773.315z M445.565,775.863c0-0.463-0.07-0.859-0.213-1.191
				c-0.139-0.332-0.336-0.588-0.586-0.766c-0.252-0.177-0.527-0.266-0.832-0.266c-0.483,0-0.891,0.189-1.223,0.572
				c-0.332,0.381-0.498,0.941-0.498,1.684c0,0.697,0.164,1.238,0.494,1.627c0.33,0.388,0.738,0.582,1.227,0.582
				c0.291,0,0.563-0.084,0.809-0.256c0.25-0.168,0.445-0.422,0.598-0.76C445.491,776.753,445.565,776.345,445.565,775.863z"/>
			<path style="fill:#4D4D4D;" d="M449.62,771.514c-0.246,0-0.455-0.074-0.627-0.225c-0.172-0.148-0.26-0.361-0.26-0.635
				c0-0.248,0.088-0.453,0.266-0.614c0.176-0.161,0.385-0.239,0.621-0.239c0.227,0,0.426,0.072,0.602,0.217
				c0.178,0.145,0.264,0.357,0.264,0.637c0,0.268-0.086,0.481-0.254,0.633C450.058,771.438,449.856,771.514,449.62,771.514z
				 M450.485,773.324v5.07c0,0.352-0.082,0.615-0.25,0.796c-0.168,0.181-0.379,0.27-0.637,0.27c-0.256,0-0.463-0.094-0.625-0.277
				c-0.162-0.185-0.24-0.447-0.24-0.789v-5.016c0-0.35,0.078-0.611,0.24-0.785c0.162-0.176,0.369-0.264,0.625-0.264
				c0.258,0,0.469,0.088,0.637,0.264C450.403,772.768,450.485,773.014,450.485,773.324z"/>
			<path style="fill:#4D4D4D;" d="M456.665,778.656l-1.547-2.543l-0.951,0.898v1.395c0,0.34-0.088,0.598-0.266,0.783
				c-0.18,0.18-0.383,0.271-0.613,0.271c-0.271,0-0.482-0.09-0.637-0.27c-0.154-0.181-0.23-0.444-0.23-0.796v-7.478
				c0-0.387,0.072-0.685,0.223-0.889c0.15-0.203,0.365-0.307,0.645-0.307c0.27,0,0.484,0.094,0.643,0.277
				c0.156,0.184,0.236,0.457,0.236,0.817v4.251l1.971-2.067c0.246-0.259,0.432-0.433,0.559-0.528
				c0.129-0.092,0.285-0.141,0.471-0.141c0.219,0,0.398,0.07,0.545,0.209c0.147,0.139,0.221,0.314,0.221,0.523
				c0,0.258-0.24,0.6-0.715,1.029l-0.93,0.854l1.797,2.826c0.133,0.209,0.228,0.369,0.285,0.478
				c0.059,0.108,0.088,0.214,0.088,0.313c0,0.28-0.078,0.497-0.229,0.659c-0.152,0.16-0.353,0.24-0.6,0.24
				c-0.215,0-0.381-0.057-0.496-0.174C457.019,779.172,456.862,778.961,456.665,778.656z"/>
			<path style="fill:#4D4D4D;" d="M461.001,779.461c-0.266,0-0.494-0.086-0.686-0.258c-0.193-0.172-0.291-0.412-0.291-0.721
				c0-0.262,0.094-0.484,0.275-0.674c0.186-0.188,0.414-0.281,0.684-0.281c0.268,0,0.496,0.092,0.689,0.279
				c0.189,0.186,0.285,0.41,0.285,0.676c0,0.307-0.096,0.545-0.285,0.717C461.479,779.375,461.259,779.461,461.001,779.461z"/>
			<path style="fill:#4D4D4D;" d="M470.245,777.289c0,0.219-0.066,0.451-0.197,0.699c-0.131,0.25-0.33,0.485-0.596,0.709
				c-0.267,0.227-0.607,0.408-1.012,0.545c-0.408,0.137-0.865,0.205-1.377,0.205c-1.08,0-1.928-0.316-2.535-0.948
				c-0.607-0.63-0.912-1.478-0.912-2.54c0-0.719,0.137-1.353,0.416-1.908c0.277-0.552,0.682-0.98,1.211-1.279
				c0.523-0.303,1.154-0.455,1.887-0.455c0.453,0,0.869,0.068,1.248,0.199c0.379,0.133,0.701,0.304,0.965,0.514
				c0.262,0.211,0.465,0.435,0.604,0.672c0.139,0.24,0.207,0.461,0.207,0.666c0,0.209-0.078,0.389-0.234,0.533
				c-0.154,0.146-0.344,0.217-0.566,0.217c-0.146,0-0.269-0.037-0.365-0.113c-0.094-0.072-0.203-0.191-0.322-0.359
				c-0.213-0.325-0.438-0.572-0.672-0.734c-0.234-0.162-0.531-0.244-0.891-0.244c-0.517,0-0.935,0.203-1.252,0.607
				c-0.314,0.404-0.475,0.959-0.475,1.66c0,0.33,0.039,0.633,0.119,0.91c0.084,0.275,0.203,0.511,0.355,0.705
				c0.152,0.195,0.34,0.344,0.559,0.443c0.217,0.1,0.459,0.15,0.721,0.15c0.35,0,0.65-0.08,0.902-0.244
				c0.25-0.162,0.471-0.41,0.664-0.744c0.109-0.197,0.223-0.354,0.348-0.461c0.125-0.113,0.275-0.168,0.455-0.168
				c0.215,0,0.395,0.081,0.531,0.242C470.173,776.932,470.245,777.106,470.245,777.289z"/>
			<path style="fill:#4D4D4D;" d="M478.337,775.896c0,0.52-0.08,1.002-0.244,1.443c-0.16,0.442-0.398,0.822-0.707,1.137
				c-0.307,0.316-0.674,0.559-1.103,0.73c-0.43,0.168-0.91,0.254-1.447,0.254c-0.529,0-1.006-0.086-1.432-0.258
				c-0.422-0.172-0.791-0.414-1.1-0.734c-0.31-0.32-0.547-0.695-0.707-1.131c-0.16-0.435-0.24-0.916-0.24-1.441
				c0-0.531,0.08-1.018,0.244-1.459c0.16-0.443,0.395-0.818,0.699-1.131c0.303-0.313,0.672-0.554,1.104-0.723
				c0.436-0.172,0.91-0.254,1.432-0.254c0.533,0,1.014,0.086,1.447,0.258c0.432,0.17,0.803,0.416,1.109,0.732
				c0.31,0.316,0.543,0.693,0.705,1.131C478.257,774.886,478.337,775.369,478.337,775.896z M476.577,775.896
				c0-0.715-0.158-1.272-0.473-1.67c-0.314-0.398-0.736-0.599-1.27-0.599c-0.34,0-0.643,0.089-0.904,0.267
				c-0.26,0.178-0.463,0.44-0.604,0.785c-0.142,0.348-0.213,0.752-0.213,1.217c0,0.458,0.07,0.857,0.209,1.199
				c0.141,0.344,0.338,0.605,0.598,0.787c0.26,0.183,0.564,0.273,0.914,0.273c0.533,0,0.955-0.201,1.27-0.602
				C476.419,777.156,476.577,776.602,476.577,775.896z"/>
			<path style="fill:#4D4D4D;" d="M485.55,776.023v2.332c0,0.369-0.082,0.643-0.248,0.828c-0.168,0.184-0.389,0.277-0.662,0.277
				c-0.266,0-0.482-0.094-0.646-0.277c-0.164-0.185-0.248-0.459-0.248-0.828v-2.795c0-0.441-0.014-0.781-0.045-1.027
				c-0.029-0.244-0.111-0.443-0.244-0.6c-0.131-0.156-0.342-0.236-0.629-0.236c-0.574,0-0.951,0.199-1.133,0.592
				c-0.184,0.394-0.273,0.96-0.273,1.695v2.371c0,0.365-0.084,0.641-0.248,0.824c-0.166,0.188-0.383,0.281-0.652,0.281
				c-0.264,0-0.48-0.094-0.652-0.281c-0.168-0.184-0.252-0.459-0.252-0.824v-5.016c0-0.33,0.074-0.582,0.227-0.752
				c0.152-0.172,0.354-0.258,0.6-0.258c0.242,0,0.441,0.081,0.602,0.24c0.162,0.162,0.244,0.383,0.244,0.666v0.167
				c0.303-0.363,0.625-0.632,0.975-0.804c0.348-0.17,0.732-0.256,1.154-0.256c0.443,0,0.822,0.086,1.137,0.264
				c0.318,0.174,0.58,0.439,0.785,0.796c0.295-0.36,0.611-0.626,0.949-0.798c0.338-0.176,0.715-0.262,1.125-0.262
				c0.48,0,0.893,0.095,1.24,0.281c0.346,0.19,0.603,0.459,0.775,0.81c0.152,0.317,0.227,0.815,0.227,1.496v3.424
				c0,0.369-0.084,0.643-0.25,0.828c-0.168,0.184-0.387,0.277-0.662,0.277c-0.264,0-0.483-0.094-0.652-0.281
				c-0.17-0.184-0.254-0.459-0.254-0.824v-2.949c0-0.377-0.016-0.677-0.047-0.906c-0.035-0.227-0.121-0.416-0.262-0.57
				c-0.139-0.154-0.355-0.232-0.641-0.232c-0.23,0-0.451,0.07-0.66,0.207c-0.205,0.137-0.367,0.322-0.486,0.551
				C485.616,774.753,485.55,775.273,485.55,776.023z"/>
		</g>
		<g>
			<path style="fill:#4D4D4D;" d="M401.278,767.809c-0.039-0.111-0.076-0.223-0.113-0.335c0.59-0.054,0.986-0.759,0.697-1.283
				c-0.262-0.591-1.17-0.665-1.522-0.124c-0.375,0.48-0.082,1.234,0.492,1.389c0.035,0.121,0.07,0.242,0.103,0.364
				c-0.881,0.056-1.781,0.253-2.521,0.757c0.076,0.215,0.151,0.432,0.227,0.645c1.493-0.654,3.171-0.512,4.747-0.356
				c0.053-0.209,0.105-0.416,0.156-0.623C402.835,767.922,402.052,767.805,401.278,767.809z"/>
			<path style="fill:#4D4D4D;" d="M410.165,770.221c-0.236,0.123-0.281,0.403-0.268,0.644c-0.264,0.256-0.139,0.639-0.168,0.963
				c-0.059,0.18-0.273,0.199-0.422,0.268c-0.209-0.314-0.428-0.617-0.703-0.875v-0.016c-0.301-0.283-0.627-0.535-0.971-0.76
				c-0.277,0.295-0.566,0.584-0.834,0.893c0.527,0.58,1.014,1.198,1.443,1.854c0.297,0.499,0.537,1.029,0.742,1.569
				c0.445-0.225,0.885-0.464,1.326-0.698c-0.232-0.543-0.502-1.072-0.785-1.59c0.195-0.108,0.461-0.211,0.49-0.465
				c0.023-0.283-0.041-0.592,0.131-0.842c0.342,0.225,0.865-0.029,0.869-0.445C411.061,770.289,410.52,769.977,410.165,770.221z"/>
			<path style="fill:#4D4D4D;" d="M407.761,773.445c-0.578-0.959-1.205-1.914-2.055-2.654c-0.986-0.867-2.264-1.45-3.59-1.443
				c-1.676-0.023-3.371,0.252-4.913,0.924c-1.455,0.639-2.719,1.775-3.359,3.248c-0.617,1.324-0.61,2.848-0.331,4.256
				c1.542,0.387,3.108,0.729,4.699,0.803c1.569,0.049,3.147,0.086,4.705-0.133c2.141-0.281,4.238-0.961,6.105-2.053
				C409.022,776.393,408.767,774.982,407.761,773.445z M400.185,775.341c-0.289,0.423-0.706,0.751-1.185,0.935
				c-0.901,0.336-1.998,0.107-2.646-0.613c-0.454-0.496-0.722-1.166-0.674-1.844c0.035-0.845,0.558-1.632,1.299-2.027
				c0.565-0.309,1.248-0.361,1.862-0.189c0.26,0.064,0.499,0.185,0.72,0.336c0.453,0.322,0.797,0.799,0.949,1.338
				C400.724,773.966,400.589,774.742,400.185,775.341z M406.679,773.818c-0.105,0.721-0.797,1.336-1.535,1.287
				c-0.426,0.035-0.838-0.166-1.129-0.469c-0.207-0.258-0.379-0.559-0.408-0.895c-0.098-0.734,0.416-1.49,1.135-1.668
				c0.316-0.088,0.647-0.039,0.959,0.033C406.376,772.349,406.819,773.111,406.679,773.818z"/>
			<path style="fill:#4D4D4D;" d="M393.863,771.299c-0.627,0.379-1.142,0.912-1.57,1.5c-0.127-0.232-0.165-0.51-0.327-0.719
				c-0.094-0.125-0.26-0.072-0.391-0.076c-0.165,0.019-0.329-0.025-0.484-0.074c0.183-0.26,0.135-0.654-0.147-0.822
				c-0.298-0.215-0.764-0.027-0.842,0.33c-0.126,0.391,0.29,0.783,0.673,0.68c0.204,0.299,0.571,0.252,0.884,0.264
				c0.142,0.244,0.249,0.512,0.43,0.732c-0.336,0.665-0.524,1.404-0.54,2.147c0.431,0.181,0.86,0.363,1.294,0.544
				c0.022-0.469,0.076-0.934,0.146-1.396c0.146-1.005,0.727-1.879,1.416-2.6C394.234,771.628,394.043,771.47,393.863,771.299z"/>
			<path style="fill:#4D4D4D;" d="M403.94,778.887c-1.59,0.346-3.229,0.447-4.852,0.377c-1.099-0.057-2.196-0.158-3.269-0.396
				c-0.761-0.154-1.506-0.375-2.254-0.588c0.12,0.957,0.507,1.871,1.058,2.658c0.651,0.914,1.521,1.756,2.605,2.094
				c0.843,0.225,1.855,0.518,3.59,0.488c1.436-0.027,2.846-0.209,4.109-0.744c0.811-0.35,1.572-0.826,2.227-1.421
				c0.566-0.535,1.008-1.198,1.314-1.913c0.297-0.674,0.563-1.887,0.533-2.508C407.45,777.819,405.71,778.588,403.94,778.887z"/>
		</g>
	</g>
</g>
<g id="object">
	<g>
		
			<radialGradient id="SVGID_1_" cx="-17770.9473" cy="-32378.5762" r="1598.5511" gradientTransform="matrix(0.1458 0 0 0.0086 2991.0039 864.4274)" gradientUnits="userSpaceOnUse">
			<stop  offset="0" style="stop-color:#666666"/>
			<stop  offset="0.1319" style="stop-color:#6D6D6D;stop-opacity:0.8681"/>
			<stop  offset="0.3245" style="stop-color:#818181;stop-opacity:0.6755"/>
			<stop  offset="0.5543" style="stop-color:#A1A1A1;stop-opacity:0.4457"/>
			<stop  offset="0.8106" style="stop-color:#CDCDCD;stop-opacity:0.1894"/>
			<stop  offset="1" style="stop-color:#F2F2F2;stop-opacity:0"/>
		</radialGradient>
		<path style="opacity:0.5;fill:url(#SVGID_1_);" d="M632.279,585.975c0-7.623-103.996-13.797-232.273-13.797
			c-128.283,0-232.285,6.174-232.285,13.797c0,7.617,104.002,13.791,232.285,13.791
			C528.283,599.766,632.279,593.592,632.279,585.975z"/>
		<g>
			<polygon style="fill:#6D6D6D;" points="271.591,239.227 261.193,244.842 202.99,143.124 204.226,140.406 			"/>
			<polygon style="fill:#6D6D6D;" points="296.031,261.436 306.429,267.055 376.986,142.872 372.38,140.153 			"/>
			
				<linearGradient id="SVGID_00000078728909093936243260000009342074122626360240_" gradientUnits="userSpaceOnUse" x1="185.8748" y1="162.3858" x2="198.7296" y2="162.3858" gradientTransform="matrix(0.8344 -0.5512 0.5512 0.8344 -40.6324 121.8995)">
				<stop  offset="0" style="stop-color:#D7D7D7"/>
				<stop  offset="1" style="stop-color:#969696"/>
			</linearGradient>
			<polygon style="fill:url(#SVGID_00000078728909093936243260000009342074122626360240_);" points="221.94,158.822 
				211.215,165.907 196.724,143.973 207.448,136.888 			"/>
			
				<linearGradient id="SVGID_00000080196054803621269060000006595520791278218676_" gradientUnits="userSpaceOnUse" x1="344.2053" y1="183.8738" x2="357.0606" y2="183.8738" gradientTransform="matrix(0.8757 0.4829 -0.4829 0.8757 161.0445 -198.4103)">
				<stop  offset="0" style="stop-color:#D7D7D7"/>
				<stop  offset="1" style="stop-color:#969696"/>
			</linearGradient>
			<polygon style="fill:url(#SVGID_00000080196054803621269060000006595520791278218676_);" points="378.582,146.543 
				367.325,140.336 380.022,117.314 391.277,123.522 			"/>
		</g>
		<g>
			<g>
				
					<linearGradient id="SVGID_00000018219089682438749400000003583038091455333546_" gradientUnits="userSpaceOnUse" x1="264.1472" y1="594.1522" x2="264.1472" y2="541.6735">
					<stop  offset="0" style="stop-color:#2E302F"/>
					<stop  offset="1" style="stop-color:#1C1E1D"/>
				</linearGradient>
				<polygon style="fill:url(#SVGID_00000018219089682438749400000003583038091455333546_);" points="266.297,584.693 
					250.39,584.693 255.549,540.843 277.904,540.843 				"/>
				<polygon style="opacity:0.4;fill:#6D6D6D;" points="266.297,584.693 260.708,584.693 268.447,540.843 277.904,540.843 				"/>
			</g>
			<g>
				
					<linearGradient id="SVGID_00000150819868313382682630000007560869371529549211_" gradientUnits="userSpaceOnUse" x1="159.4785" y1="594.1522" x2="159.4785" y2="541.6735" gradientTransform="matrix(-1 0 0 1 695.3301 0)">
					<stop  offset="0" style="stop-color:#2E302F"/>
					<stop  offset="1" style="stop-color:#1C1E1D"/>
				</linearGradient>
				<polygon style="fill:url(#SVGID_00000150819868313382682630000007560869371529549211_);" points="533.703,584.693 
					549.609,584.693 544.451,540.843 522.094,540.843 				"/>
				<polygon style="opacity:0.4;fill:#6D6D6D;" points="533.703,584.693 539.291,584.693 531.553,540.843 522.094,540.843 				"/>
			</g>
		</g>
		<path style="fill:#772808;" d="M583.143,536.975c0,7.123-5.775,12.897-12.898,12.897H229.753c-7.123,0-12.896-5.774-12.896-12.897
			l0,0c0-7.122,5.774-12.898,12.896-12.898h340.491C577.367,524.077,583.143,529.852,583.143,536.975L583.143,536.975z"/>
		<g>
			
				<linearGradient id="SVGID_00000070116518446960681730000018275916002394895003_" gradientUnits="userSpaceOnUse" x1="400.0004" y1="195.1918" x2="400.0004" y2="609.1274">
				<stop  offset="0" style="stop-color:#E89356"/>
				<stop  offset="1" style="stop-color:#BB5013"/>
			</linearGradient>
			<path style="fill:url(#SVGID_00000070116518446960681730000018275916002394895003_);" d="M623.557,515.048
				c0,14.246-11.551,25.795-25.797,25.795H202.238c-14.247,0-25.794-11.549-25.794-25.795V257.961
				c0-14.246,11.547-25.795,25.794-25.795H597.76c14.246,0,25.797,11.549,25.797,25.795V515.048z"/>
			
				<linearGradient id="SVGID_00000039845324818237772210000013708397199050123692_" gradientUnits="userSpaceOnUse" x1="399.9995" y1="224.6581" x2="399.9995" y2="541.5759">
				<stop  offset="0.0043" style="stop-color:#FBFBFB"/>
				<stop  offset="1" style="stop-color:#969696"/>
			</linearGradient>
			<path style="fill:url(#SVGID_00000039845324818237772210000013708397199050123692_);" d="M615.594,260.355
				c0-11.865-9.65-21.518-21.518-21.518H205.922c-11.865,0-21.517,9.652-21.517,21.518v252.298c0,11.863,9.652,21.517,21.517,21.517
				h388.154c11.867,0,21.518-9.653,21.518-21.517V260.355z"/>
			
				<linearGradient id="SVGID_00000054978515097287926220000011778978432834749872_" gradientUnits="userSpaceOnUse" x1="399.9985" y1="542.6573" x2="399.9985" y2="243.321">
				<stop  offset="0" style="stop-color:#4D4F4E"/>
				<stop  offset="0.9957" style="stop-color:#969696"/>
			</linearGradient>
			<path style="fill:url(#SVGID_00000054978515097287926220000011778978432834749872_);" d="M611.078,260.355
				c0-9.376-7.627-17.003-17.002-17.003H205.922c-9.376,0-17.003,7.627-17.003,17.003v252.298c0,9.375,7.628,17.003,17.003,17.003
				h388.154c9.375,0,17.002-7.628,17.002-17.003V260.355z"/>
			
				<linearGradient id="SVGID_00000003100255605129505450000016952211465224299919_" gradientUnits="userSpaceOnUse" x1="399.9985" y1="542.6574" x2="399.9985" y2="243.3214">
				<stop  offset="0.0043" style="stop-color:#FBFBFB"/>
				<stop  offset="1" style="stop-color:#969696"/>
			</linearGradient>
			<path style="opacity:0.3;fill:url(#SVGID_00000003100255605129505450000016952211465224299919_);" d="M492.646,290.394
				c-63.886,9.68-128.405,14.605-192.987,16.021c-31.591,0.692-63.268,1.161-94.867,1.161c-5.294,0-10.586-0.067-15.873-0.228
				v128.483c5.464-0.033,10.927-0.143,16.388-0.332c29.893-1.033,59.668-3.952,89.377-7.324
				c57.63-6.541,115.234-13.935,171.914-26.492c49.891-11.055,98.512-25.995,144.48-47.949v-89.209
				C572.234,275.58,532.732,284.32,492.646,290.394z"/>
			<g>
				<g>
					<rect x="538.285" y="392.179" style="fill:#191514;" width="46.861" height="4.077"/>
					
						<linearGradient id="SVGID_00000018952311753382399670000015480596115774844086_" gradientUnits="userSpaceOnUse" x1="561.7158" y1="400.1895" x2="561.7158" y2="404.2656">
						<stop  offset="0" style="stop-color:#2E302F"/>
						<stop  offset="1" style="stop-color:#1C1E1D"/>
					</linearGradient>
					
						<rect x="538.285" y="400.19" style="fill:url(#SVGID_00000018952311753382399670000015480596115774844086_);" width="46.861" height="4.076"/>
					<rect x="538.285" y="408.2" style="fill:#191514;" width="46.861" height="4.078"/>
					
						<linearGradient id="SVGID_00000124119852368676771460000011920759507396309401_" gradientUnits="userSpaceOnUse" x1="561.7158" y1="416.2129" x2="561.7158" y2="420.2871">
						<stop  offset="0" style="stop-color:#2E302F"/>
						<stop  offset="1" style="stop-color:#1C1E1D"/>
					</linearGradient>
					
						<rect x="538.285" y="416.213" style="fill:url(#SVGID_00000124119852368676771460000011920759507396309401_);" width="46.861" height="4.074"/>
					
						<linearGradient id="SVGID_00000034779945968170422500000002786178830477588909_" gradientUnits="userSpaceOnUse" x1="561.7158" y1="424.2227" x2="561.7158" y2="428.3008">
						<stop  offset="0" style="stop-color:#2E302F"/>
						<stop  offset="1" style="stop-color:#1C1E1D"/>
					</linearGradient>
					
						<rect x="538.285" y="424.223" style="fill:url(#SVGID_00000034779945968170422500000002786178830477588909_);" width="46.861" height="4.078"/>
					<rect x="538.285" y="432.232" style="fill:#191514;" width="46.861" height="4.078"/>
					
						<linearGradient id="SVGID_00000176028827297149290910000003966024962654311858_" gradientUnits="userSpaceOnUse" x1="561.7158" y1="440.2461" x2="561.7158" y2="444.3213">
						<stop  offset="0" style="stop-color:#2E302F"/>
						<stop  offset="1" style="stop-color:#1C1E1D"/>
					</linearGradient>
					
						<rect x="538.285" y="440.246" style="fill:url(#SVGID_00000176028827297149290910000003966024962654311858_);" width="46.861" height="4.075"/>
					<rect x="538.285" y="448.256" style="fill:#191514;" width="46.861" height="4.077"/>
					
						<linearGradient id="SVGID_00000016763670778705435380000011472160013679832970_" gradientUnits="userSpaceOnUse" x1="561.7158" y1="456.2676" x2="561.7158" y2="460.3457">
						<stop  offset="0" style="stop-color:#2E302F"/>
						<stop  offset="1" style="stop-color:#1C1E1D"/>
					</linearGradient>
					
						<rect x="538.285" y="456.268" style="fill:url(#SVGID_00000016763670778705435380000011472160013679832970_);" width="46.861" height="4.078"/>
					<rect x="538.285" y="464.278" style="fill:#191514;" width="46.861" height="4.076"/>
					
						<linearGradient id="SVGID_00000147199619834461795080000008822936280781342355_" gradientUnits="userSpaceOnUse" x1="561.7158" y1="472.291" x2="561.7158" y2="476.3662">
						<stop  offset="0" style="stop-color:#2E302F"/>
						<stop  offset="1" style="stop-color:#1C1E1D"/>
					</linearGradient>
					
						<rect x="538.285" y="472.291" style="fill:url(#SVGID_00000147199619834461795080000008822936280781342355_);" width="46.861" height="4.075"/>
					<rect x="538.285" y="480.301" style="fill:#191514;" width="46.861" height="4.077"/>
					
						<linearGradient id="SVGID_00000113347228832862197310000017169485944740318371_" gradientUnits="userSpaceOnUse" x1="561.7158" y1="490.7334" x2="561.7158" y2="496.8486">
						<stop  offset="0" style="stop-color:#2E302F"/>
						<stop  offset="1" style="stop-color:#1C1E1D"/>
					</linearGradient>
					
						<rect x="538.285" y="490.733" style="fill:url(#SVGID_00000113347228832862197310000017169485944740318371_);" width="46.861" height="6.115"/>
				</g>
				<g>
					
						<linearGradient id="SVGID_00000044897796332932082640000009417774134476813981_" gradientUnits="userSpaceOnUse" x1="526.9297" y1="387.1479" x2="593.1699" y2="387.1479">
						<stop  offset="0" style="stop-color:#2E302F"/>
						<stop  offset="1" style="stop-color:#1C1E1D"/>
					</linearGradient>
					<path style="fill:url(#SVGID_00000044897796332932082640000009417774134476813981_);" d="M585.029,506.868h-49.961
						c-4.486,0-8.139-3.625-8.139-8.081V275.514c0-4.458,3.652-8.086,8.139-8.086h49.961c4.488,0,8.141,3.628,8.141,8.086v223.273
						C593.17,503.243,589.518,506.868,585.029,506.868z M535.068,268.734c-3.762,0-6.822,3.042-6.822,6.779v223.273
						c0,3.736,3.06,6.774,6.822,6.774h49.961c3.764,0,6.824-3.038,6.824-6.774V275.514c0-3.737-3.06-6.779-6.824-6.779H535.068z"/>
				</g>
				<g>
					<path style="opacity:0.2;fill:#141615;" d="M581.414,295.13c4.982,11.815-0.557,25.433-12.371,30.417
						c-11.815,4.981-25.43-0.558-30.414-12.373c-4.982-11.813,0.557-25.429,12.371-30.411
						C562.815,277.779,576.432,283.317,581.414,295.13z"/>
					
						<linearGradient id="SVGID_00000017505807497092850350000002811302787032579215_" gradientUnits="userSpaceOnUse" x1="501.6734" y1="370.2609" x2="548.106" y2="370.2609" gradientTransform="matrix(0.9214 -0.3886 0.3886 0.9214 -66.1035 163.5963)">
						<stop  offset="0" style="stop-color:#2E302F"/>
						<stop  offset="1" style="stop-color:#1C1E1D"/>
					</linearGradient>
					<path style="fill:url(#SVGID_00000017505807497092850350000002811302787032579215_);" d="M582.805,291.761
						c4.982,11.813-0.555,25.432-12.369,30.414c-11.814,4.982-25.432-0.557-30.414-12.371c-4.982-11.815,0.555-25.432,12.371-30.414
						C564.205,274.406,577.822,279.945,582.805,291.761z"/>
					<path style="fill:#6D6D6D;" d="M579.791,293.03c4.281,10.151-0.477,21.851-10.627,26.13
						c-10.15,4.281-21.85-0.477-26.129-10.629c-4.281-10.148,0.477-21.85,10.627-26.129
						C563.813,278.122,575.512,282.882,579.791,293.03z"/>
					
						<linearGradient id="SVGID_00000015330051735063630490000010557397189696076426_" gradientUnits="userSpaceOnUse" x1="504.3732" y1="345.6403" x2="546.8812" y2="396.6491" gradientTransform="matrix(0.9214 -0.3886 0.3886 0.9214 -66.1035 163.5963)">
						<stop  offset="0" style="stop-color:#D7D7D7"/>
						<stop  offset="1" style="stop-color:#969696"/>
					</linearGradient>
					<path style="opacity:0.7;fill:url(#SVGID_00000015330051735063630490000010557397189696076426_);" d="M577.381,294.047
						c3.719,8.816-0.416,18.984-9.232,22.703c-8.818,3.72-18.984-0.417-22.703-9.233c-3.719-8.819,0.416-18.983,9.232-22.704
						C563.496,281.095,573.662,285.229,577.381,294.047z"/>
					<path style="fill:#EA924F;" d="M573.766,295.573c2.877,6.82-0.32,14.684-7.143,17.561c-6.822,2.877-14.688-0.321-17.563-7.143
						c-2.877-6.823,0.32-14.687,7.143-17.564C563.025,285.552,570.889,288.75,573.766,295.573z"/>
					
						<linearGradient id="SVGID_00000036958703029234936450000000974762930885180570_" gradientUnits="userSpaceOnUse" x1="525.7072" y1="347.0428" x2="525.7072" y2="394.0323" gradientTransform="matrix(0.9214 -0.3886 0.3886 0.9214 -66.1035 163.5963)">
						<stop  offset="0.0043" style="stop-color:#FBFBFB"/>
						<stop  offset="1" style="stop-color:#969696"/>
					</linearGradient>
					<polygon style="fill:url(#SVGID_00000036958703029234936450000000974762930885180570_);" points="572.416,315.306 
						565.639,318.164 551.152,283.815 557.932,280.957 					"/>
					
						<linearGradient id="SVGID_00000011018288698058579630000012210894490689892540_" gradientUnits="userSpaceOnUse" x1="501.6913" y1="371.1536" x2="522.0486" y2="371.1536" gradientTransform="matrix(0.9214 -0.3886 0.3886 0.9214 -66.1035 163.5963)">
						<stop  offset="0" style="stop-color:#2E302F;stop-opacity:0"/>
						<stop  offset="1" style="stop-color:#1C1E1D"/>
					</linearGradient>
					<path style="opacity:0.7;fill:url(#SVGID_00000011018288698058579630000012210894490689892540_);" d="M551.152,283.815
						l-10.836,26.642c3.883,8.478,12.287,13.552,21.123,13.547l3.463-7.638L551.152,283.815z"/>
				</g>
				<g>
					<path style="opacity:0.2;fill:#141615;" d="M572.369,339.109c11.158,7.671,13.984,22.939,6.313,34.099
						c-7.674,11.157-22.939,13.98-34.098,6.308c-11.158-7.674-13.98-22.939-6.309-34.096
						C545.949,334.261,561.215,331.436,572.369,339.109z"/>
					
						<linearGradient id="SVGID_00000180336824508967541570000014355530392699002023_" gradientUnits="userSpaceOnUse" x1="383.388" y1="480.1342" x2="432.4237" y2="480.1342" gradientTransform="matrix(0.5666 -0.824 0.824 0.5666 -63.7951 419.5917)">
						<stop  offset="0" style="stop-color:#2E302F"/>
						<stop  offset="1" style="stop-color:#1C1E1D"/>
					</linearGradient>
					<path style="fill:url(#SVGID_00000180336824508967541570000014355530392699002023_);" d="M576.848,335.319
						c11.158,7.671,13.984,22.939,6.313,34.097c-7.674,11.157-22.939,13.981-34.098,6.308c-11.16-7.674-13.982-22.938-6.313-34.098
						C550.424,330.471,565.69,327.647,576.848,335.319z"/>
					<path style="fill:#6D6D6D;" d="M574.891,338.164c9.588,6.593,12.016,19.708,5.422,29.293
						c-6.592,9.588-19.709,12.014-29.293,5.421c-9.588-6.592-12.016-19.707-5.422-29.294
						C552.19,334,565.307,331.571,574.891,338.164z"/>
					
						<linearGradient id="SVGID_00000111182861221367653680000010070739104296409984_" gradientUnits="userSpaceOnUse" x1="386.2384" y1="454.1331" x2="431.131" y2="508.0033" gradientTransform="matrix(0.5666 -0.824 0.824 0.5666 -63.7951 419.5917)">
						<stop  offset="0" style="stop-color:#D7D7D7"/>
						<stop  offset="1" style="stop-color:#969696"/>
					</linearGradient>
					<path style="opacity:0.7;fill:url(#SVGID_00000111182861221367653680000010070739104296409984_);" d="M573.324,340.44
						c8.328,5.726,10.438,17.123,4.713,25.451c-5.727,8.329-17.127,10.435-25.453,4.711c-8.326-5.73-10.438-17.124-4.711-25.454
						C553.6,336.822,564.998,334.715,573.324,340.44z"/>
					<path style="fill:#B8460A;" d="M570.979,343.854c6.441,4.429,8.072,13.246,3.643,19.688c-4.43,6.444-13.248,8.075-19.688,3.646
						c-6.443-4.432-8.076-13.246-3.646-19.692C555.719,341.055,564.535,339.425,570.979,343.854z"/>
					
						<linearGradient id="SVGID_00000029739018302348464170000005944540033670201776_" gradientUnits="userSpaceOnUse" x1="408.7689" y1="455.6131" x2="408.7689" y2="505.2408" gradientTransform="matrix(0.5666 -0.824 0.824 0.5666 -63.7951 419.5917)">
						<stop  offset="0.0043" style="stop-color:#FBFBFB"/>
						<stop  offset="1" style="stop-color:#969696"/>
					</linearGradient>
					<polygon style="fill:url(#SVGID_00000029739018302348464170000005944540033670201776_);" points="581.012,362.177 
						576.609,368.578 544.168,346.27 548.572,339.869 					"/>
					
						<linearGradient id="SVGID_00000142891811155350269020000015962448020346378144_" gradientUnits="userSpaceOnUse" x1="383.4061" y1="481.0766" x2="404.9048" y2="481.0766" gradientTransform="matrix(0.5666 -0.824 0.824 0.5666 -63.7951 419.5917)">
						<stop  offset="0" style="stop-color:#2E302F;stop-opacity:0"/>
						<stop  offset="1" style="stop-color:#1C1E1D"/>
					</linearGradient>
					<path style="opacity:0.7;fill:url(#SVGID_00000142891811155350269020000015962448020346378144_);" d="M544.168,346.27
						l5.527,29.867c8.281,5.331,18.644,5.06,26.502,0.026l-1.268-8.766L544.168,346.27z"/>
				</g>
			</g>
			
				<linearGradient id="SVGID_00000122686567957623882310000008352937205415214229_" gradientUnits="userSpaceOnUse" x1="352.707" y1="260.1204" x2="352.707" y2="514.0529">
				<stop  offset="0" style="stop-color:#141615"/>
				<stop  offset="0.4283" style="stop-color:#282928"/>
				<stop  offset="1" style="stop-color:#484948"/>
			</linearGradient>
			<path style="fill:url(#SVGID_00000122686567957623882310000008352937205415214229_);" d="M504.896,483.196
				c0,15.461-12.17,27.992-27.182,27.992H227.701c-15.013,0-27.183-12.531-27.183-27.992V287.251
				c0-15.46,12.17-27.992,27.183-27.992h250.014c15.012,0,27.182,12.532,27.182,27.992V483.196z"/>
			<path style="fill:#141615;" d="M498.879,479.322c0,14.848-11.689,26.885-26.107,26.885H232.644
				c-14.419,0-26.108-12.037-26.108-26.885V291.127c0-14.85,11.689-26.886,26.108-26.886h240.127
				c14.418,0,26.107,12.036,26.107,26.886V479.322z"/>
			<path style="fill:#D1D4D1;" d="M495.439,477.44c0,14.498-11.414,24.964-25.494,24.964H235.468
				c-14.08,0-25.494-10.466-25.494-24.964V293.674c0-14.501,11.414-26.254,25.494-26.254h234.477
				c14.08,0,25.494,11.753,25.494,26.254V477.44z"/>
			<path style="fill:#173979;" d="M469.945,267.42h-19.423v234.984h19.423c14.08,0,25.494-10.466,25.494-24.964V293.674
				C495.439,279.173,484.025,267.42,469.945,267.42z"/>
			<rect x="247.522" y="267.42" style="fill:#FFA800;" width="41.713" height="234.984"/>
			<rect x="289.344" y="267.42" style="fill:#22BDE4;" width="41.713" height="234.984"/>
			<rect x="331.165" y="267.42" style="fill:#1D8C09;" width="41.713" height="234.984"/>
			<rect x="372.987" y="267.42" style="fill:#B2448D;" width="41.714" height="234.984"/>
			<rect x="414.809" y="267.42" style="fill:#DB1F36;" width="41.715" height="234.984"/>
			
				<linearGradient id="SVGID_00000157270646068348736660000001863598045618093750_" gradientUnits="userSpaceOnUse" x1="352.707" y1="417.5205" x2="352.707" y2="267.8567">
				<stop  offset="0" style="stop-color:#FBFBFB;stop-opacity:0.5"/>
				<stop  offset="1" style="stop-color:#FBFBFB;stop-opacity:0"/>
			</linearGradient>
			<path style="opacity:0.8;fill:url(#SVGID_00000157270646068348736660000001863598045618093750_);" d="M231.997,383.397
				c36.437,7.81,73.264,12.419,110.521,13.571c36.481,1.127,73.4,0.563,109.403-5.974c12.407-2.254,24.567-5.164,36.495-8.663
				v-85.553c0-13.786-10.853-24.961-24.238-24.961h-222.94c-13.387,0-24.24,11.175-24.24,24.961v83.186
				C222.18,381.324,227.32,382.396,231.997,383.397z"/>
		</g>
	</g>
</g>
</svg>
